<mxfile host="Electron" agent="Mozilla/5.0 (Windows NT 10.0; Win64; x64) AppleWebKit/537.36 (KHTML, like Gecko) draw.io/27.0.5 Chrome/134.0.6998.205 Electron/35.3.0 Safari/537.36" version="27.0.5">
  <diagram name="PÃ¡gina-1" id="PT8gCVFRgI-VNaCLD9BZ">
    <mxGraphModel dx="1425" dy="829" grid="1" gridSize="10" guides="1" tooltips="1" connect="1" arrows="1" fold="1" page="1" pageScale="1" pageWidth="827" pageHeight="1169" math="0" shadow="0">
      <root>
        <mxCell id="0" />
        <mxCell id="1" parent="0" />
        <mxCell id="Wqz8N_j6Il6ZuTGUS3Qg-21" value="" style="rounded=0;orthogonalLoop=1;jettySize=auto;html=1;" parent="1" source="Wqz8N_j6Il6ZuTGUS3Qg-1" target="Wqz8N_j6Il6ZuTGUS3Qg-20" edge="1">
          <mxGeometry relative="1" as="geometry" />
        </mxCell>
        <mxCell id="Wqz8N_j6Il6ZuTGUS3Qg-60" value="" style="edgeStyle=orthogonalEdgeStyle;rounded=0;orthogonalLoop=1;jettySize=auto;html=1;entryX=0.75;entryY=0;entryDx=0;entryDy=0;curved=1;strokeColor=#3CE5C8;" parent="1" source="Wqz8N_j6Il6ZuTGUS3Qg-1" target="Wqz8N_j6Il6ZuTGUS3Qg-13" edge="1">
          <mxGeometry relative="1" as="geometry" />
        </mxCell>
        <mxCell id="Wqz8N_j6Il6ZuTGUS3Qg-62" value="" style="edgeStyle=orthogonalEdgeStyle;rounded=0;orthogonalLoop=1;jettySize=auto;html=1;curved=1;entryX=0.293;entryY=0.013;entryDx=0;entryDy=0;entryPerimeter=0;strokeColor=#E58083;" parent="1" source="Wqz8N_j6Il6ZuTGUS3Qg-1" target="Wqz8N_j6Il6ZuTGUS3Qg-12" edge="1">
          <mxGeometry relative="1" as="geometry">
            <mxPoint x="280" y="160" as="targetPoint" />
          </mxGeometry>
        </mxCell>
        <mxCell id="Wqz8N_j6Il6ZuTGUS3Qg-1" value="&lt;font style=&quot;font-size: 24px;&quot;&gt;App&lt;/font&gt;" style="rounded=1;whiteSpace=wrap;html=1;fillColor=#BEEDEE;" parent="1" vertex="1">
          <mxGeometry x="327" y="20" width="174" height="80" as="geometry" />
        </mxCell>
        <mxCell id="Wqz8N_j6Il6ZuTGUS3Qg-10" value="" style="edgeStyle=orthogonalEdgeStyle;rounded=0;orthogonalLoop=1;jettySize=auto;html=1;exitX=0.006;exitY=0.176;exitDx=0;exitDy=0;exitPerimeter=0;strokeColor=#E58083;curved=1;" parent="1" source="Wqz8N_j6Il6ZuTGUS3Qg-3" target="Wqz8N_j6Il6ZuTGUS3Qg-1" edge="1">
          <mxGeometry relative="1" as="geometry">
            <mxPoint x="510" y="40" as="targetPoint" />
          </mxGeometry>
        </mxCell>
        <mxCell id="Wqz8N_j6Il6ZuTGUS3Qg-48" value="" style="edgeStyle=orthogonalEdgeStyle;rounded=0;orthogonalLoop=1;jettySize=auto;html=1;entryX=0.557;entryY=0.013;entryDx=0;entryDy=0;entryPerimeter=0;strokeColor=#E58083;curved=1;" parent="1" source="Wqz8N_j6Il6ZuTGUS3Qg-3" target="Wqz8N_j6Il6ZuTGUS3Qg-38" edge="1">
          <mxGeometry relative="1" as="geometry" />
        </mxCell>
        <mxCell id="Wqz8N_j6Il6ZuTGUS3Qg-57" value="" style="edgeStyle=none;rounded=0;orthogonalLoop=1;jettySize=auto;html=1;exitX=1.004;exitY=0.077;exitDx=0;exitDy=0;exitPerimeter=0;" parent="1" source="Wqz8N_j6Il6ZuTGUS3Qg-5" target="Wqz8N_j6Il6ZuTGUS3Qg-51" edge="1">
          <mxGeometry relative="1" as="geometry" />
        </mxCell>
        <mxCell id="Wqz8N_j6Il6ZuTGUS3Qg-3" value="&lt;font style=&quot;font-size: 18px;&quot;&gt;GlobalState&amp;nbsp;&lt;/font&gt;&lt;span style=&quot;font-size: 18px; background-color: transparent; color: light-dark(rgb(0, 0, 0), rgb(255, 255, 255));&quot;&gt;(Redux Toolkit)&lt;/span&gt;" style="swimlane;fontStyle=0;childLayout=stackLayout;horizontal=1;startSize=26;fillColor=#E58083;horizontalStack=0;resizeParent=1;resizeParentMax=0;resizeLast=0;collapsible=1;marginBottom=0;whiteSpace=wrap;html=1;" parent="1" vertex="1">
          <mxGeometry x="570" y="10" width="250" height="102" as="geometry" />
        </mxCell>
        <mxCell id="Wqz8N_j6Il6ZuTGUS3Qg-4" value="&lt;font style=&quot;font-size: 14px;&quot;&gt;* contadorNotificaciones&lt;/font&gt;" style="text;strokeColor=none;fillColor=none;align=left;verticalAlign=top;spacingLeft=4;spacingRight=4;overflow=hidden;rotatable=0;points=[[0,0.5],[1,0.5]];portConstraint=eastwest;whiteSpace=wrap;html=1;" parent="Wqz8N_j6Il6ZuTGUS3Qg-3" vertex="1">
          <mxGeometry y="26" width="250" height="24" as="geometry" />
        </mxCell>
        <mxCell id="Wqz8N_j6Il6ZuTGUS3Qg-5" value="&lt;font style=&quot;font-size: 14px;&quot;&gt;* notificacionesLista&lt;/font&gt;" style="text;strokeColor=none;fillColor=none;align=left;verticalAlign=top;spacingLeft=4;spacingRight=4;overflow=hidden;rotatable=0;points=[[0,0.5],[1,0.5]];portConstraint=eastwest;whiteSpace=wrap;html=1;" parent="Wqz8N_j6Il6ZuTGUS3Qg-3" vertex="1">
          <mxGeometry y="50" width="250" height="26" as="geometry" />
        </mxCell>
        <mxCell id="Wqz8N_j6Il6ZuTGUS3Qg-6" value="&lt;font style=&quot;font-size: 14px;&quot;&gt;* archivadasLista&lt;/font&gt;" style="text;strokeColor=none;fillColor=none;align=left;verticalAlign=top;spacingLeft=4;spacingRight=4;overflow=hidden;rotatable=0;points=[[0,0.5],[1,0.5]];portConstraint=eastwest;whiteSpace=wrap;html=1;" parent="Wqz8N_j6Il6ZuTGUS3Qg-3" vertex="1">
          <mxGeometry y="76" width="250" height="26" as="geometry" />
        </mxCell>
        <mxCell id="Wqz8N_j6Il6ZuTGUS3Qg-12" value="&lt;font style=&quot;font-size: 24px;&quot;&gt;BellBtnWidget&lt;/font&gt;" style="rounded=1;whiteSpace=wrap;html=1;fillColor=#CCFFCC;" parent="1" vertex="1">
          <mxGeometry x="230" y="170" width="174" height="80" as="geometry" />
        </mxCell>
        <mxCell id="Wqz8N_j6Il6ZuTGUS3Qg-28" value="" style="edgeStyle=none;rounded=0;orthogonalLoop=1;jettySize=auto;html=1;" parent="1" source="Wqz8N_j6Il6ZuTGUS3Qg-13" target="Wqz8N_j6Il6ZuTGUS3Qg-27" edge="1">
          <mxGeometry relative="1" as="geometry" />
        </mxCell>
        <mxCell id="Wqz8N_j6Il6ZuTGUS3Qg-65" value="&lt;font style=&quot;font-size: 14px;&quot;&gt;props&lt;/font&gt;" style="edgeLabel;html=1;align=center;verticalAlign=middle;resizable=0;points=[];" parent="Wqz8N_j6Il6ZuTGUS3Qg-28" vertex="1" connectable="0">
          <mxGeometry x="0.0692" y="-4" relative="1" as="geometry">
            <mxPoint as="offset" />
          </mxGeometry>
        </mxCell>
        <mxCell id="Wqz8N_j6Il6ZuTGUS3Qg-40" value="" style="edgeStyle=none;rounded=0;orthogonalLoop=1;jettySize=auto;html=1;" parent="1" source="Wqz8N_j6Il6ZuTGUS3Qg-13" target="Wqz8N_j6Il6ZuTGUS3Qg-39" edge="1">
          <mxGeometry relative="1" as="geometry" />
        </mxCell>
        <mxCell id="Wqz8N_j6Il6ZuTGUS3Qg-13" value="&lt;font style=&quot;font-size: 24px;&quot;&gt;MainModal&lt;/font&gt;" style="rounded=1;whiteSpace=wrap;html=1;fillColor=#FF9933;" parent="1" vertex="1">
          <mxGeometry x="450" y="220" width="174" height="80" as="geometry" />
        </mxCell>
        <mxCell id="Wqz8N_j6Il6ZuTGUS3Qg-19" value="" style="edgeStyle=orthogonalEdgeStyle;rounded=0;orthogonalLoop=1;jettySize=auto;html=1;fillColor=#3CE5C8;strokeColor=#3CE5C8;curved=1;" parent="1" source="Wqz8N_j6Il6ZuTGUS3Qg-15" target="Wqz8N_j6Il6ZuTGUS3Qg-1" edge="1">
          <mxGeometry relative="1" as="geometry" />
        </mxCell>
        <mxCell id="Wqz8N_j6Il6ZuTGUS3Qg-15" value="&lt;font style=&quot;font-size: 18px;&quot;&gt;LocalState&lt;/font&gt;" style="swimlane;fontStyle=0;childLayout=stackLayout;horizontal=1;startSize=26;fillColor=#3CE5C8;horizontalStack=0;resizeParent=1;resizeParentMax=0;resizeLast=0;collapsible=1;marginBottom=0;whiteSpace=wrap;html=1;" parent="1" vertex="1">
          <mxGeometry x="70" y="35" width="180" height="50" as="geometry" />
        </mxCell>
        <mxCell id="Wqz8N_j6Il6ZuTGUS3Qg-16" value="&lt;font style=&quot;font-size: 14px;&quot;&gt;* isModalOpen&lt;/font&gt;" style="text;strokeColor=none;fillColor=none;align=left;verticalAlign=top;spacingLeft=4;spacingRight=4;overflow=hidden;rotatable=0;points=[[0,0.5],[1,0.5]];portConstraint=eastwest;whiteSpace=wrap;html=1;" parent="Wqz8N_j6Il6ZuTGUS3Qg-15" vertex="1">
          <mxGeometry y="26" width="180" height="24" as="geometry" />
        </mxCell>
        <mxCell id="Wqz8N_j6Il6ZuTGUS3Qg-20" value="" style="shape=waypoint;sketch=0;size=6;pointerEvents=1;points=[];fillColor=#BEEDEE;resizable=0;rotatable=0;perimeter=centerPerimeter;snapToPoint=1;rounded=1;" parent="1" vertex="1">
          <mxGeometry x="307" y="160" width="20" height="20" as="geometry" />
        </mxCell>
        <mxCell id="Wqz8N_j6Il6ZuTGUS3Qg-22" value="" style="shape=waypoint;sketch=0;size=6;pointerEvents=1;points=[];fillColor=#BEEDEE;resizable=0;rotatable=0;perimeter=centerPerimeter;snapToPoint=1;rounded=1;" parent="1" vertex="1">
          <mxGeometry x="510" y="210" width="20" height="20" as="geometry" />
        </mxCell>
        <mxCell id="Wqz8N_j6Il6ZuTGUS3Qg-34" value="" style="edgeStyle=none;rounded=0;orthogonalLoop=1;jettySize=auto;html=1;" parent="1" source="Wqz8N_j6Il6ZuTGUS3Qg-25" target="Wqz8N_j6Il6ZuTGUS3Qg-32" edge="1">
          <mxGeometry x="-0.0109" relative="1" as="geometry">
            <mxPoint as="offset" />
          </mxGeometry>
        </mxCell>
        <mxCell id="Wqz8N_j6Il6ZuTGUS3Qg-36" value="" style="edgeStyle=none;rounded=0;orthogonalLoop=1;jettySize=auto;html=1;" parent="1" source="Wqz8N_j6Il6ZuTGUS3Qg-25" target="Wqz8N_j6Il6ZuTGUS3Qg-33" edge="1">
          <mxGeometry relative="1" as="geometry" />
        </mxCell>
        <mxCell id="Wqz8N_j6Il6ZuTGUS3Qg-25" value="&lt;font style=&quot;font-size: 24px;&quot;&gt;ModalHeader&lt;/font&gt;" style="rounded=1;whiteSpace=wrap;html=1;fillColor=#FFB366;" parent="1" vertex="1">
          <mxGeometry x="210" y="350" width="174" height="80" as="geometry" />
        </mxCell>
        <mxCell id="Wqz8N_j6Il6ZuTGUS3Qg-41" value="" style="edgeStyle=none;rounded=0;orthogonalLoop=1;jettySize=auto;html=1;" parent="1" source="Wqz8N_j6Il6ZuTGUS3Qg-26" target="Wqz8N_j6Il6ZuTGUS3Qg-37" edge="1">
          <mxGeometry relative="1" as="geometry" />
        </mxCell>
        <mxCell id="Wqz8N_j6Il6ZuTGUS3Qg-42" value="" style="edgeStyle=none;rounded=0;orthogonalLoop=1;jettySize=auto;html=1;" parent="1" source="Wqz8N_j6Il6ZuTGUS3Qg-26" target="Wqz8N_j6Il6ZuTGUS3Qg-37" edge="1">
          <mxGeometry relative="1" as="geometry" />
        </mxCell>
        <mxCell id="Wqz8N_j6Il6ZuTGUS3Qg-43" value="" style="edgeStyle=none;rounded=0;orthogonalLoop=1;jettySize=auto;html=1;" parent="1" source="Wqz8N_j6Il6ZuTGUS3Qg-26" target="Wqz8N_j6Il6ZuTGUS3Qg-37" edge="1">
          <mxGeometry relative="1" as="geometry" />
        </mxCell>
        <mxCell id="Wqz8N_j6Il6ZuTGUS3Qg-44" style="edgeStyle=none;rounded=0;orthogonalLoop=1;jettySize=auto;html=1;entryX=0.328;entryY=-0.012;entryDx=0;entryDy=0;entryPerimeter=0;" parent="1" source="Wqz8N_j6Il6ZuTGUS3Qg-26" target="Wqz8N_j6Il6ZuTGUS3Qg-38" edge="1">
          <mxGeometry relative="1" as="geometry">
            <mxPoint x="760" y="460" as="targetPoint" />
          </mxGeometry>
        </mxCell>
        <mxCell id="Wqz8N_j6Il6ZuTGUS3Qg-26" value="&lt;span style=&quot;font-size: 24px;&quot;&gt;ModalBody&lt;/span&gt;" style="rounded=1;whiteSpace=wrap;html=1;fillColor=#FFB366;" parent="1" vertex="1">
          <mxGeometry x="653" y="350" width="174" height="80" as="geometry" />
        </mxCell>
        <mxCell id="Wqz8N_j6Il6ZuTGUS3Qg-27" value="" style="shape=waypoint;sketch=0;size=6;pointerEvents=1;points=[];fillColor=#BEEDEE;resizable=0;rotatable=0;perimeter=centerPerimeter;snapToPoint=1;rounded=1;" parent="1" vertex="1">
          <mxGeometry x="297" y="340" width="20" height="20" as="geometry" />
        </mxCell>
        <mxCell id="Wqz8N_j6Il6ZuTGUS3Qg-29" value="" style="shape=waypoint;sketch=0;size=6;pointerEvents=1;points=[];fillColor=#BEEDEE;resizable=0;rotatable=0;perimeter=centerPerimeter;snapToPoint=1;rounded=1;" parent="1" vertex="1">
          <mxGeometry x="770" y="370" width="20" height="20" as="geometry" />
        </mxCell>
        <mxCell id="Wqz8N_j6Il6ZuTGUS3Qg-32" value="&lt;font style=&quot;font-size: 24px;&quot;&gt;ModalSectionBtn&lt;/font&gt;" style="rounded=1;whiteSpace=wrap;html=1;fillColor=#FFCC99;" parent="1" vertex="1">
          <mxGeometry x="90" y="490" width="190" height="80" as="geometry" />
        </mxCell>
        <mxCell id="Wqz8N_j6Il6ZuTGUS3Qg-33" value="&lt;font style=&quot;font-size: 24px;&quot;&gt;ModalSelect&lt;/font&gt;" style="rounded=1;whiteSpace=wrap;html=1;fillColor=#FFCC99;" parent="1" vertex="1">
          <mxGeometry x="327" y="490" width="174" height="80" as="geometry" />
        </mxCell>
        <mxCell id="Wqz8N_j6Il6ZuTGUS3Qg-37" value="&lt;span style=&quot;font-size: 24px;&quot;&gt;BodyFilters&lt;/span&gt;" style="rounded=1;whiteSpace=wrap;html=1;fillColor=#FFCC99;" parent="1" vertex="1">
          <mxGeometry x="560" y="490" width="174" height="80" as="geometry" />
        </mxCell>
        <mxCell id="Wqz8N_j6Il6ZuTGUS3Qg-38" value="&lt;span style=&quot;font-size: 24px;&quot;&gt;BodyLista&lt;/span&gt;" style="rounded=1;whiteSpace=wrap;html=1;fillColor=#FFCC99;" parent="1" vertex="1">
          <mxGeometry x="780" y="490" width="174" height="80" as="geometry" />
        </mxCell>
        <mxCell id="Wqz8N_j6Il6ZuTGUS3Qg-39" value="" style="shape=waypoint;sketch=0;size=6;pointerEvents=1;points=[];fillColor=#BEEDEE;resizable=0;rotatable=0;perimeter=centerPerimeter;snapToPoint=1;rounded=1;" parent="1" vertex="1">
          <mxGeometry x="760" y="340" width="20" height="20" as="geometry" />
        </mxCell>
        <mxCell id="Wqz8N_j6Il6ZuTGUS3Qg-59" value="" style="edgeStyle=none;rounded=0;orthogonalLoop=1;jettySize=auto;html=1;" parent="1" source="Wqz8N_j6Il6ZuTGUS3Qg-51" target="Wqz8N_j6Il6ZuTGUS3Qg-58" edge="1">
          <mxGeometry relative="1" as="geometry" />
        </mxCell>
        <mxCell id="Wqz8N_j6Il6ZuTGUS3Qg-51" value="&lt;font style=&quot;font-size: 18px;&quot;&gt;useNotifications&lt;/font&gt;&lt;div&gt;&lt;font style=&quot;font-size: 18px;&quot;&gt;(custom hook)&lt;/font&gt;&lt;/div&gt;" style="rounded=0;whiteSpace=wrap;html=1;strokeColor=#CC0066;" parent="1" vertex="1">
          <mxGeometry x="920" y="35" width="160" height="60" as="geometry" />
        </mxCell>
        <mxCell id="Wqz8N_j6Il6ZuTGUS3Qg-58" value="&lt;span style=&quot;font-size: 18px;&quot;&gt;API&lt;/span&gt;&lt;div&gt;&lt;span style=&quot;font-size: 18px;&quot;&gt;(fetch, socket.io&lt;/span&gt;&lt;span style=&quot;font-size: 18px; background-color: transparent; color: light-dark(rgb(0, 0, 0), rgb(255, 255, 255));&quot;&gt;&amp;nbsp;)&lt;/span&gt;&lt;/div&gt;" style="rounded=0;whiteSpace=wrap;html=1;strokeColor=#CC0066;fillColor=#FF3399;" parent="1" vertex="1">
          <mxGeometry x="920" y="160" width="160" height="60" as="geometry" />
        </mxCell>
        <mxCell id="Wqz8N_j6Il6ZuTGUS3Qg-64" value="" style="edgeStyle=orthogonalEdgeStyle;rounded=0;orthogonalLoop=1;jettySize=auto;html=1;curved=1;entryX=0.098;entryY=-0.025;entryDx=0;entryDy=0;entryPerimeter=0;strokeColor=#3CE5C8;exitX=0;exitY=0.75;exitDx=0;exitDy=0;" parent="1" source="Wqz8N_j6Il6ZuTGUS3Qg-1" target="Wqz8N_j6Il6ZuTGUS3Qg-12" edge="1">
          <mxGeometry relative="1" as="geometry">
            <mxPoint x="320" y="80" as="sourcePoint" />
            <mxPoint x="291" y="181" as="targetPoint" />
          </mxGeometry>
        </mxCell>
        <mxCell id="Wqz8N_j6Il6ZuTGUS3Qg-68" value="&lt;font style=&quot;font-size: 14px;&quot;&gt;props&lt;/font&gt;" style="edgeLabel;html=1;align=center;verticalAlign=middle;resizable=0;points=[];" parent="1" vertex="1" connectable="0">
          <mxGeometry x="240.0004946698062" y="459.99925372564854" as="geometry" />
        </mxCell>
        <mxCell id="Wqz8N_j6Il6ZuTGUS3Qg-69" value="&lt;font style=&quot;font-size: 14px;&quot;&gt;props&lt;/font&gt;" style="edgeLabel;html=1;align=center;verticalAlign=middle;resizable=0;points=[];" parent="1" vertex="1" connectable="0">
          <mxGeometry x="350.0004946698062" y="459.99925372564854" as="geometry" />
        </mxCell>
        <mxCell id="Wqz8N_j6Il6ZuTGUS3Qg-70" value="&lt;font style=&quot;font-size: 14px;&quot;&gt;props&lt;/font&gt;" style="edgeLabel;html=1;align=center;verticalAlign=middle;resizable=0;points=[];" parent="1" vertex="1" connectable="0">
          <mxGeometry x="680.0004946698061" y="309.99925372564854" as="geometry" />
        </mxCell>
        <mxCell id="Wqz8N_j6Il6ZuTGUS3Qg-71" value="&lt;font style=&quot;font-size: 14px;&quot;&gt;props&lt;/font&gt;" style="edgeLabel;html=1;align=center;verticalAlign=middle;resizable=0;points=[];" parent="1" vertex="1" connectable="0">
          <mxGeometry x="690.0004946698061" y="459.99925372564854" as="geometry" />
        </mxCell>
        <mxCell id="Wqz8N_j6Il6ZuTGUS3Qg-72" value="&lt;font style=&quot;font-size: 14px;&quot;&gt;props&lt;/font&gt;" style="edgeLabel;html=1;align=center;verticalAlign=middle;resizable=0;points=[];" parent="1" vertex="1" connectable="0">
          <mxGeometry x="810.0004946698061" y="459.99925372564854" as="geometry" />
        </mxCell>
        <mxCell id="qFCPgFGdDfn3H8ZEaTux-2" style="rounded=0;orthogonalLoop=1;jettySize=auto;html=1;entryX=0;entryY=0;entryDx=0;entryDy=0;entryPerimeter=0;" edge="1" parent="1" source="Wqz8N_j6Il6ZuTGUS3Qg-1" target="Wqz8N_j6Il6ZuTGUS3Qg-22">
          <mxGeometry relative="1" as="geometry" />
        </mxCell>
      </root>
    </mxGraphModel>
  </diagram>
</mxfile>
